<?xml version="1.0" encoding="utf-8"?>
<!-- Generator: Adobe Illustrator 15.0.0, SVG Export Plug-In . SVG Version: 6.00 Build 0)  -->
<!DOCTYPE svg PUBLIC "-//W3C//DTD SVG 1.1//EN" "http://www.w3.org/Graphics/SVG/1.1/DTD/svg11.dtd">
<svg version="1.1" id="Layer_1" xmlns="http://www.w3.org/2000/svg" xmlns:xlink="http://www.w3.org/1999/xlink" x="0px" y="0px"
	 width="209px" height="25px" viewBox="0 0 209 25" enable-background="new 0 0 209 25" xml:space="preserve">
<g>
	<path fill="#FFFFFF" d="M5.801,1.967v8.465h8.204V1.967h4.968v22.029h-4.968v-9.217H5.801v9.217H0.833V1.967H5.801z"/>
	<path fill="#FFFFFF" d="M41.852,12.753c0,7.256-4.347,11.603-10.818,11.603c-6.504,0-10.361-4.936-10.361-11.243
		c0-6.603,4.249-11.538,10.72-11.538C38.158,1.575,41.852,6.641,41.852,12.753z M25.935,13.014c0,4.348,2.026,7.387,5.36,7.387
		c3.366,0,5.294-3.203,5.294-7.484c0-3.987-1.863-7.387-5.294-7.387C27.896,5.529,25.935,8.732,25.935,13.014z"/>
	<path fill="#FFFFFF" d="M43.486,23.996V1.967h5.818l4.576,8.073c1.307,2.32,2.582,5.065,3.595,7.55h0.065
		c-0.294-2.909-0.392-5.883-0.392-9.217V1.967h4.576v22.029h-5.229l-4.707-8.498c-1.307-2.354-2.778-5.197-3.824-7.779h-0.13
		c0.163,2.942,0.229,6.046,0.229,9.642v6.635H43.486z"/>
	<path fill="#FFFFFF" d="M82.805,22.982c-1.536,0.523-4.445,1.242-7.354,1.242c-4.021,0-6.929-1.013-8.956-2.941
		c-1.994-1.929-3.105-4.805-3.105-8.04c0.033-7.321,5.36-11.505,12.583-11.505c2.843,0,5.033,0.556,6.112,1.046l-1.046,4.02
		c-1.209-0.556-2.68-0.948-5.099-0.948c-4.151,0-7.321,2.32-7.321,7.125c0,4.576,2.876,7.224,6.961,7.224
		c1.111,0,2.027-0.131,2.419-0.295V15.27h-3.399v-3.89h8.204V22.982z"/>
	<path fill="#FFFFFF" d="M85.06,1.967h4.935v9.74h0.065c0.49-0.85,1.013-1.634,1.536-2.419l4.968-7.321h6.145l-7.289,9.38
		l7.648,12.649h-5.785l-5.425-9.511l-1.863,2.32v7.19H85.06V1.967z"/>
	<path fill="#FFFFFF" d="M108.494,1.967v22.029h-4.968V1.967H108.494z"/>
	<path fill="#FFFFFF" d="M116.306,18.342l-1.569,5.654h-5.132l6.701-22.029h6.536l6.864,22.029h-5.394l-1.699-5.654H116.306z
		 M121.895,14.615l-1.373-4.673c-0.393-1.308-0.784-2.942-1.111-4.249h-0.065c-0.327,1.307-0.653,2.974-1.013,4.249l-1.308,4.673
		H121.895z"/>
	<path fill="#FFFFFF" d="M132.549,6.15h-5.948V1.967h16.931V6.15h-6.014v17.846h-4.969V6.15z"/>
	<path fill="#FFFFFF" d="M141.308,21.349c0-1.798,1.21-3.04,2.942-3.04c1.699,0,2.876,1.21,2.908,3.04
		c0,1.732-1.177,3.007-2.974,3.007C142.518,24.355,141.308,23.081,141.308,21.349z"/>
	<path fill="#FFFFFF" d="M164.383,23.31c-1.014,0.523-3.138,1.046-5.818,1.046c-6.21,0-10.851-3.922-10.851-11.178
		c0-6.929,4.674-11.57,11.505-11.57c2.713,0,4.478,0.588,5.229,0.98l-0.719,2.32c-1.046-0.522-2.582-0.915-4.413-0.915
		c-5.164,0-8.596,3.301-8.596,9.087c0,5.425,3.105,8.856,8.433,8.856c1.765,0,3.53-0.359,4.674-0.915L164.383,23.31z"/>
	<path fill="#FFFFFF" d="M184.483,12.753c0,7.55-4.608,11.603-10.23,11.603c-5.851,0-9.903-4.543-9.903-11.211
		c0-6.994,4.314-11.57,10.197-11.57C180.594,1.575,184.483,6.183,184.483,12.753z M167.356,13.08c0,4.738,2.55,8.955,7.06,8.955
		c4.511,0,7.061-4.151,7.061-9.152c0-4.412-2.288-8.988-7.027-8.988S167.356,8.275,167.356,13.08z"/>
	<path fill="#FFFFFF" d="M205.107,14.321c-0.163-3.072-0.359-6.798-0.359-9.511h-0.065c-0.784,2.549-1.667,5.327-2.778,8.367
		l-3.89,10.688h-2.157l-3.595-10.492c-1.046-3.137-1.896-5.948-2.517-8.562h-0.065c-0.065,2.745-0.229,6.406-0.425,9.74
		l-0.589,9.445h-2.713l1.536-22.029h3.628l3.759,10.655c0.915,2.713,1.635,5.131,2.223,7.419h0.065
		c0.588-2.223,1.373-4.641,2.354-7.419l3.922-10.655h3.628l1.373,22.029h-2.812L205.107,14.321z"/>
</g>
</svg>
